<svg id="visual" viewBox="0 0 1000 100" width="1000" height="100" xmlns="http://www.w3.org/2000/svg" xmlns:xlink="http://www.w3.org/1999/xlink" version="1.1"><path d="M0 81L15.2 78.7C30.3 76.3 60.7 71.7 91 69.2C121.3 66.7 151.7 66.3 182 65.5C212.3 64.7 242.7 63.3 273 60.8C303.3 58.3 333.7 54.7 364 54.5C394.3 54.3 424.7 57.7 454.8 57.5C485 57.3 515 53.7 545.2 52.3C575.3 51 605.7 52 636 56.5C666.3 61 696.7 69 727 71.7C757.3 74.3 787.7 71.7 818 70.3C848.3 69 878.7 69 909 66.7C939.3 64.3 969.7 59.7 984.8 57.3L1000 55L1000 101L984.8 101C969.7 101 939.3 101 909 101C878.7 101 848.3 101 818 101C787.7 101 757.3 101 727 101C696.7 101 666.3 101 636 101C605.7 101 575.3 101 545.2 101C515 101 485 101 454.8 101C424.7 101 394.3 101 364 101C333.7 101 303.3 101 273 101C242.7 101 212.3 101 182 101C151.7 101 121.3 101 91 101C60.7 101 30.3 101 15.2 101L0 101Z" fill="#FFCD00" stroke-linecap="round" stroke-linejoin="miter"></path></svg>