<?xml version="1.0" encoding="UTF-8"?>
<svg id="visual" xmlns="http://www.w3.org/2000/svg" viewBox="0 0 1000 485.28">
  <defs>
    <style>
      .cls-1 {
        fill: #ffcd00;
      }
    </style>
  </defs>
  <path class="cls-1" d="M0,0v437.28l12.8,2.7c12.9,2.6,38.5,8,64.2,7.1,25.7-.8,51.3-7.8,77-4.3s51.3,17.5,77,18.8c25.7,1.4,51.3-10,77-10.1,25.7-.2,51.3,10.8,77,9.6,25.7-1.1,51.3-14.5,76.8-22s50.9-9.1,76.4-6.6,51.1,9.1,76.8,14.3,51.3,8.8,77,8.5,51.3-4.7,77-9.2,51.3-9.1,77-6.8,51.3,11.7,77,20.5,51.3,17.2,64.2,21.3l12.8,4.2V0H0Z"/>
</svg>