<?xml version="1.0" encoding="UTF-8"?>
<svg id="visual" xmlns="http://www.w3.org/2000/svg" viewBox="0 0 1000 485.28">
  <defs>
    <style>
      .cls-1 {
        fill: #ffcd00;
      }
    </style>
  </defs>
  <path class="cls-1" d="M0,485.28V29.23l15.2-2.3c15.1-2.4,45.5-7,75.8-9.5s60.7-2.9,91-3.7c30.3-.8,60.7-2.2,91-4.7,30.3-2.5,60.7-6.1,91-6.3,30.3-.2,60.7,3.2,90.8,3,30.2-.2,60.2-3.8,90.4-5.2,30.1-1.3,60.5-.3,90.8,4.2s60.7,12.5,91,15.2c30.3,2.6,60.7,0,91-1.4,30.3-1.3,60.7-1.3,91-3.6,30.3-2.4,60.7-7,75.8-9.4l15.2-2.3v482.05H0Z"/>
</svg>